<mxfile host="app.diagrams.net" modified="2023-09-17T20:52:05.358Z" agent="Mozilla/5.0 (Windows NT 10.0; Win64; x64) AppleWebKit/537.36 (KHTML, like Gecko) Chrome/117.0.0.0 Safari/537.36" etag="ZvpgzEBXjsYFDIDNY63p" version="21.7.4" type="device">
  <diagram name="Página-1" id="WvUrSzUP7gxILRHiQbs2">
    <mxGraphModel dx="2427" dy="1969" grid="1" gridSize="10" guides="1" tooltips="1" connect="1" arrows="1" fold="1" page="1" pageScale="1" pageWidth="827" pageHeight="1169" math="0" shadow="0">
      <root>
        <mxCell id="0" />
        <mxCell id="1" parent="0" />
        <mxCell id="EGHb8W3hOEWeccC0JwiV-1" value="1. &lt;br&gt;Se debe modelar la información necesaria para una Inmobiliaria de la ciudad de La&lt;br&gt;Plata.&lt;br&gt;&lt;br&gt;Es necesario modelar la información de clientes y empleados de la inmobiliaria. &lt;br&gt;De ambos se conoce D.N.I, nombre, apellido y dirección detallada. &lt;br&gt;Además de los empleados se conoce el número de legajo, el cual no se repite entre diferentes empleados y el área&lt;br&gt;donde trabaja cada uno. &lt;br&gt;&lt;br&gt;Los empleados pueden ir rotando de área a lo largo del tiempo y&lt;br&gt;es necesario modelar por las distintas áreas que pasó un empleado. &lt;br&gt;De las áreas se conoce código único de área, descripción, teléfonos y ubicación. &lt;br&gt;&lt;br&gt;De cada cliente, además, se debe almacenar sexo, nacionalidad, número de pasaporte (si tuviera) y los inmuebles de los que es dueño. &lt;br&gt;&lt;br&gt;Un cliente no puede trabajar en la inmobiliaria. &lt;br&gt;&lt;br&gt;La inmobiliaria maneja diferentes inmuebles de los cuales se conoce dirección detallada, código único de inmueble, cantidad de ambientes, si posee balcón, si posee lavadero,&lt;br&gt;cantidad de baños, si se alquila, se vende o ambas cosas, precio de venta y precio de&lt;br&gt;alquiler, tipo de inmueble (casa, duplex, depto,...).&lt;br&gt;&lt;br&gt;Debe quedar registrado todo alquiler y venta que realiza la inmobiliaria detallando, para los&lt;br&gt;alquileres inmueble, cliente, fechas de inicio y fin de alquiler, empleado que alquiló y precio.&lt;br&gt;&lt;br&gt;De las ventas se registran fecha y hora de venta, cliente, empleado que vendió la&lt;br&gt;propiedad, precio de venta y comisión de venta.&lt;br&gt;Nota: tenga en cuenta que podría pedirse promedio de ventas de un semestre del año,&lt;br&gt;vendedor más exitoso del año, tipo de inmueble más alquilado o más vendido entre otros" style="text;whiteSpace=wrap;html=1;" parent="1" vertex="1">
          <mxGeometry x="150" y="-220" width="580" height="320" as="geometry" />
        </mxCell>
        <mxCell id="EGHb8W3hOEWeccC0JwiV-2" value="Personas" style="rounded=0;whiteSpace=wrap;html=1;" parent="1" vertex="1">
          <mxGeometry x="130" y="347.5" width="120" height="60" as="geometry" />
        </mxCell>
        <mxCell id="EGHb8W3hOEWeccC0JwiV-3" value="Clientes" style="rounded=0;whiteSpace=wrap;html=1;" parent="1" vertex="1">
          <mxGeometry x="30" y="650" width="120" height="60" as="geometry" />
        </mxCell>
        <mxCell id="EGHb8W3hOEWeccC0JwiV-4" value="Empleados" style="rounded=0;whiteSpace=wrap;html=1;" parent="1" vertex="1">
          <mxGeometry x="220" y="650" width="120" height="60" as="geometry" />
        </mxCell>
        <mxCell id="EGHb8W3hOEWeccC0JwiV-8" value="" style="endArrow=none;html=1;rounded=0;exitX=0.5;exitY=0;exitDx=0;exitDy=0;entryX=0.5;entryY=1;entryDx=0;entryDy=0;" parent="1" source="EGHb8W3hOEWeccC0JwiV-3" edge="1" target="Z9AFtrY4_CmLBTgdTpo8-5">
          <mxGeometry width="50" height="50" relative="1" as="geometry">
            <mxPoint x="40" y="670" as="sourcePoint" />
            <mxPoint x="110" y="610" as="targetPoint" />
          </mxGeometry>
        </mxCell>
        <mxCell id="EGHb8W3hOEWeccC0JwiV-9" value="" style="endArrow=none;html=1;rounded=0;exitX=0.7;exitY=-0.033;exitDx=0;exitDy=0;exitPerimeter=0;entryX=0.5;entryY=1;entryDx=0;entryDy=0;" parent="1" source="EGHb8W3hOEWeccC0JwiV-4" edge="1" target="Z9AFtrY4_CmLBTgdTpo8-6">
          <mxGeometry width="50" height="50" relative="1" as="geometry">
            <mxPoint x="220" y="640" as="sourcePoint" />
            <mxPoint x="280" y="610" as="targetPoint" />
          </mxGeometry>
        </mxCell>
        <mxCell id="EGHb8W3hOEWeccC0JwiV-11" value="" style="endArrow=none;html=1;rounded=0;entryX=0;entryY=0.75;entryDx=0;entryDy=0;exitX=1;exitY=0.5;exitDx=0;exitDy=0;" parent="1" source="EGHb8W3hOEWeccC0JwiV-16" target="EGHb8W3hOEWeccC0JwiV-2" edge="1">
          <mxGeometry width="50" height="50" relative="1" as="geometry">
            <mxPoint x="100" y="362.5" as="sourcePoint" />
            <mxPoint x="100" y="337.5" as="targetPoint" />
          </mxGeometry>
        </mxCell>
        <mxCell id="EGHb8W3hOEWeccC0JwiV-12" value="" style="endArrow=none;html=1;rounded=0;exitX=0;exitY=0;exitDx=0;exitDy=0;entryX=1;entryY=1;entryDx=0;entryDy=0;" parent="1" source="EGHb8W3hOEWeccC0JwiV-2" target="EGHb8W3hOEWeccC0JwiV-18" edge="1">
          <mxGeometry width="50" height="50" relative="1" as="geometry">
            <mxPoint x="140" y="327.5" as="sourcePoint" />
            <mxPoint x="170" y="317.5" as="targetPoint" />
          </mxGeometry>
        </mxCell>
        <mxCell id="EGHb8W3hOEWeccC0JwiV-13" value="" style="endArrow=none;html=1;rounded=0;exitX=0.25;exitY=0;exitDx=0;exitDy=0;entryX=0.5;entryY=1;entryDx=0;entryDy=0;" parent="1" source="EGHb8W3hOEWeccC0JwiV-2" target="EGHb8W3hOEWeccC0JwiV-19" edge="1">
          <mxGeometry width="50" height="50" relative="1" as="geometry">
            <mxPoint x="189.5" y="347.5" as="sourcePoint" />
            <mxPoint x="189.5" y="327.5" as="targetPoint" />
          </mxGeometry>
        </mxCell>
        <mxCell id="EGHb8W3hOEWeccC0JwiV-14" value="" style="endArrow=none;html=1;rounded=0;exitX=0.75;exitY=0;exitDx=0;exitDy=0;entryX=0;entryY=0.5;entryDx=0;entryDy=0;" parent="1" source="EGHb8W3hOEWeccC0JwiV-2" target="Z9AFtrY4_CmLBTgdTpo8-1" edge="1">
          <mxGeometry width="50" height="50" relative="1" as="geometry">
            <mxPoint x="220" y="327.5" as="sourcePoint" />
            <mxPoint x="200" y="317.5" as="targetPoint" />
            <Array as="points" />
            <mxPoint as="offset" />
          </mxGeometry>
        </mxCell>
        <mxCell id="EGHb8W3hOEWeccC0JwiV-16" value="" style="ellipse;whiteSpace=wrap;html=1;aspect=fixed;rotation=15;fillColor=#030303;" parent="1" vertex="1">
          <mxGeometry x="70" y="369.5" width="20" height="20" as="geometry" />
        </mxCell>
        <mxCell id="EGHb8W3hOEWeccC0JwiV-18" value="" style="ellipse;whiteSpace=wrap;html=1;aspect=fixed;rotation=-15;" parent="1" vertex="1">
          <mxGeometry x="80" y="327.5" width="20" height="20" as="geometry" />
        </mxCell>
        <mxCell id="EGHb8W3hOEWeccC0JwiV-19" value="" style="ellipse;whiteSpace=wrap;html=1;aspect=fixed;rotation=-55;" parent="1" vertex="1">
          <mxGeometry x="100" y="297.5" width="20" height="20" as="geometry" />
        </mxCell>
        <mxCell id="EGHb8W3hOEWeccC0JwiV-21" value="" style="endArrow=none;html=1;rounded=0;exitX=1;exitY=0;exitDx=0;exitDy=0;" parent="1" source="EGHb8W3hOEWeccC0JwiV-4" target="EGHb8W3hOEWeccC0JwiV-20" edge="1">
          <mxGeometry width="50" height="50" relative="1" as="geometry">
            <mxPoint x="350" y="580" as="sourcePoint" />
            <mxPoint x="270" y="510" as="targetPoint" />
          </mxGeometry>
        </mxCell>
        <mxCell id="EGHb8W3hOEWeccC0JwiV-20" value="" style="ellipse;whiteSpace=wrap;html=1;aspect=fixed;rotation=15;fillColor=#050505;" parent="1" vertex="1">
          <mxGeometry x="370" y="630" width="20" height="20" as="geometry" />
        </mxCell>
        <mxCell id="EGHb8W3hOEWeccC0JwiV-23" value="DNI 1,1" style="text;html=1;align=center;verticalAlign=middle;resizable=0;points=[];autosize=1;strokeColor=none;fillColor=none;" parent="1" vertex="1">
          <mxGeometry x="20" y="357.5" width="60" height="30" as="geometry" />
        </mxCell>
        <mxCell id="EGHb8W3hOEWeccC0JwiV-24" value="Nombre" style="text;html=1;align=center;verticalAlign=middle;resizable=0;points=[];autosize=1;strokeColor=none;fillColor=none;" parent="1" vertex="1">
          <mxGeometry x="10" y="317.5" width="70" height="30" as="geometry" />
        </mxCell>
        <mxCell id="EGHb8W3hOEWeccC0JwiV-25" value="Apellido" style="text;html=1;align=center;verticalAlign=middle;resizable=0;points=[];autosize=1;strokeColor=none;fillColor=none;" parent="1" vertex="1">
          <mxGeometry x="30" y="287.5" width="70" height="30" as="geometry" />
        </mxCell>
        <mxCell id="EGHb8W3hOEWeccC0JwiV-30" value="Legajo 1,1" style="text;html=1;align=center;verticalAlign=middle;resizable=0;points=[];autosize=1;strokeColor=none;fillColor=none;" parent="1" vertex="1">
          <mxGeometry x="380" y="620" width="80" height="30" as="geometry" />
        </mxCell>
        <mxCell id="EGHb8W3hOEWeccC0JwiV-31" value="Areas" style="rounded=0;whiteSpace=wrap;html=1;" parent="1" vertex="1">
          <mxGeometry x="740" y="650" width="120" height="60" as="geometry" />
        </mxCell>
        <mxCell id="EGHb8W3hOEWeccC0JwiV-32" value="" style="endArrow=none;html=1;rounded=0;exitX=1;exitY=0;exitDx=0;exitDy=0;entryX=0.5;entryY=1;entryDx=0;entryDy=0;" parent="1" source="EGHb8W3hOEWeccC0JwiV-31" target="EGHb8W3hOEWeccC0JwiV-33" edge="1">
          <mxGeometry width="50" height="50" relative="1" as="geometry">
            <mxPoint x="860" y="652" as="sourcePoint" />
            <mxPoint x="860" y="632" as="targetPoint" />
            <Array as="points" />
            <mxPoint as="offset" />
          </mxGeometry>
        </mxCell>
        <mxCell id="EGHb8W3hOEWeccC0JwiV-33" value="" style="ellipse;whiteSpace=wrap;html=1;aspect=fixed;rotation=15;fillColor=#1C1C1C;" parent="1" vertex="1">
          <mxGeometry x="860" y="602" width="20" height="20" as="geometry" />
        </mxCell>
        <mxCell id="EGHb8W3hOEWeccC0JwiV-34" value="codigo" style="text;html=1;align=center;verticalAlign=middle;resizable=0;points=[];autosize=1;strokeColor=none;fillColor=none;" parent="1" vertex="1">
          <mxGeometry x="855" y="572" width="60" height="30" as="geometry" />
        </mxCell>
        <mxCell id="EGHb8W3hOEWeccC0JwiV-35" value="" style="endArrow=none;html=1;rounded=0;exitX=0.592;exitY=0.05;exitDx=0;exitDy=0;entryX=0.5;entryY=1;entryDx=0;entryDy=0;exitPerimeter=0;" parent="1" source="EGHb8W3hOEWeccC0JwiV-31" target="EGHb8W3hOEWeccC0JwiV-36" edge="1">
          <mxGeometry width="50" height="50" relative="1" as="geometry">
            <mxPoint x="820" y="650" as="sourcePoint" />
            <mxPoint x="820" y="630" as="targetPoint" />
            <Array as="points" />
            <mxPoint as="offset" />
          </mxGeometry>
        </mxCell>
        <mxCell id="EGHb8W3hOEWeccC0JwiV-36" value="" style="ellipse;whiteSpace=wrap;html=1;aspect=fixed;rotation=-95;direction=south;" parent="1" vertex="1">
          <mxGeometry x="800" y="602" width="20" height="20" as="geometry" />
        </mxCell>
        <mxCell id="EGHb8W3hOEWeccC0JwiV-37" value="descripcion" style="text;html=1;align=center;verticalAlign=middle;resizable=0;points=[];autosize=1;strokeColor=none;fillColor=none;" parent="1" vertex="1">
          <mxGeometry x="770" y="572" width="80" height="30" as="geometry" />
        </mxCell>
        <mxCell id="EGHb8W3hOEWeccC0JwiV-38" value="" style="endArrow=none;html=1;rounded=0;exitX=0.25;exitY=0;exitDx=0;exitDy=0;entryX=0.5;entryY=1;entryDx=0;entryDy=0;" parent="1" source="EGHb8W3hOEWeccC0JwiV-31" target="Z9AFtrY4_CmLBTgdTpo8-21" edge="1">
          <mxGeometry width="50" height="50" relative="1" as="geometry">
            <mxPoint x="720" y="627" as="sourcePoint" />
            <mxPoint x="755" y="548.6602540378444" as="targetPoint" />
            <Array as="points" />
            <mxPoint as="offset" />
          </mxGeometry>
        </mxCell>
        <mxCell id="EGHb8W3hOEWeccC0JwiV-41" value="" style="endArrow=none;html=1;rounded=0;exitX=0;exitY=0;exitDx=0;exitDy=0;entryX=0.5;entryY=1;entryDx=0;entryDy=0;" parent="1" source="EGHb8W3hOEWeccC0JwiV-31" target="EGHb8W3hOEWeccC0JwiV-42" edge="1">
          <mxGeometry width="50" height="50" relative="1" as="geometry">
            <mxPoint x="650" y="627" as="sourcePoint" />
            <mxPoint x="650" y="607" as="targetPoint" />
            <Array as="points" />
            <mxPoint as="offset" />
          </mxGeometry>
        </mxCell>
        <mxCell id="EGHb8W3hOEWeccC0JwiV-42" value="" style="ellipse;whiteSpace=wrap;html=1;aspect=fixed;rotation=-50;" parent="1" vertex="1">
          <mxGeometry x="690" y="617" width="20" height="20" as="geometry" />
        </mxCell>
        <mxCell id="EGHb8W3hOEWeccC0JwiV-43" value="Ubicacion" style="text;html=1;align=center;verticalAlign=middle;resizable=0;points=[];autosize=1;strokeColor=none;fillColor=none;" parent="1" vertex="1">
          <mxGeometry x="650" y="592" width="80" height="30" as="geometry" />
        </mxCell>
        <mxCell id="EGHb8W3hOEWeccC0JwiV-47" value="" style="endArrow=none;html=1;rounded=0;exitX=0;exitY=0.5;exitDx=0;exitDy=0;entryX=1;entryY=0.5;entryDx=0;entryDy=0;fontStyle=1;" parent="1" source="EGHb8W3hOEWeccC0JwiV-3" target="Z9AFtrY4_CmLBTgdTpo8-33" edge="1">
          <mxGeometry width="50" height="50" relative="1" as="geometry">
            <mxPoint x="-135" y="740" as="sourcePoint" />
            <mxPoint x="-180.00540311152122" y="649.005747765375" as="targetPoint" />
            <Array as="points" />
            <mxPoint as="offset" />
          </mxGeometry>
        </mxCell>
        <mxCell id="EGHb8W3hOEWeccC0JwiV-50" value="" style="endArrow=none;html=1;rounded=0;exitX=0;exitY=0;exitDx=0;exitDy=0;entryX=0.5;entryY=1;entryDx=0;entryDy=0;" parent="1" source="EGHb8W3hOEWeccC0JwiV-3" target="EGHb8W3hOEWeccC0JwiV-51" edge="1">
          <mxGeometry width="50" height="50" relative="1" as="geometry">
            <mxPoint x="-80" y="750" as="sourcePoint" />
            <mxPoint x="-80" y="730" as="targetPoint" />
            <Array as="points" />
            <mxPoint as="offset" />
          </mxGeometry>
        </mxCell>
        <mxCell id="EGHb8W3hOEWeccC0JwiV-51" value="" style="ellipse;whiteSpace=wrap;html=1;aspect=fixed;rotation=-55;" parent="1" vertex="1">
          <mxGeometry x="-10" y="595" width="20" height="20" as="geometry" />
        </mxCell>
        <mxCell id="EGHb8W3hOEWeccC0JwiV-52" value="Sexo 1,1" style="text;html=1;align=center;verticalAlign=middle;resizable=0;points=[];autosize=1;strokeColor=none;fillColor=none;" parent="1" vertex="1">
          <mxGeometry x="-70" y="585" width="70" height="30" as="geometry" />
        </mxCell>
        <mxCell id="EGHb8W3hOEWeccC0JwiV-57" value="" style="endArrow=none;html=1;rounded=0;exitX=0;exitY=0.75;exitDx=0;exitDy=0;entryX=0.5;entryY=1;entryDx=0;entryDy=0;" parent="1" source="EGHb8W3hOEWeccC0JwiV-3" target="EGHb8W3hOEWeccC0JwiV-58" edge="1">
          <mxGeometry width="50" height="50" relative="1" as="geometry">
            <mxPoint x="20" y="820" as="sourcePoint" />
            <mxPoint x="20" y="800" as="targetPoint" />
            <Array as="points" />
            <mxPoint as="offset" />
          </mxGeometry>
        </mxCell>
        <mxCell id="EGHb8W3hOEWeccC0JwiV-58" value="" style="ellipse;whiteSpace=wrap;html=1;aspect=fixed;rotation=-60;fillColor=#050505;" parent="1" vertex="1">
          <mxGeometry x="-45" y="698" width="20" height="20" as="geometry" />
        </mxCell>
        <mxCell id="EGHb8W3hOEWeccC0JwiV-59" value="Nro. pasaporte 0,1" style="text;html=1;align=center;verticalAlign=middle;resizable=0;points=[];autosize=1;strokeColor=none;fillColor=none;" parent="1" vertex="1">
          <mxGeometry x="-170" y="693" width="120" height="30" as="geometry" />
        </mxCell>
        <mxCell id="EGHb8W3hOEWeccC0JwiV-60" value="" style="endArrow=none;html=1;rounded=0;entryX=0.5;entryY=0;entryDx=0;entryDy=0;exitX=0;exitY=1;exitDx=0;exitDy=0;edgeStyle=orthogonalEdgeStyle;" parent="1" source="EGHb8W3hOEWeccC0JwiV-3" target="Z9AFtrY4_CmLBTgdTpo8-29" edge="1">
          <mxGeometry width="50" height="50" relative="1" as="geometry">
            <mxPoint x="50" y="803" as="sourcePoint" />
            <mxPoint x="-222.9289321881347" y="902.9289321881347" as="targetPoint" />
            <Array as="points">
              <mxPoint x="10" y="710" />
              <mxPoint x="10" y="740" />
              <mxPoint x="-130" y="740" />
              <mxPoint x="-130" y="817" />
              <mxPoint x="-225" y="817" />
            </Array>
            <mxPoint as="offset" />
          </mxGeometry>
        </mxCell>
        <mxCell id="EGHb8W3hOEWeccC0JwiV-64" value="Inmuebles" style="rounded=0;whiteSpace=wrap;html=1;" parent="1" vertex="1">
          <mxGeometry x="245" y="1330" width="120" height="60" as="geometry" />
        </mxCell>
        <mxCell id="EGHb8W3hOEWeccC0JwiV-70" value="" style="endArrow=none;html=1;rounded=0;exitX=0.1;exitY=0.983;exitDx=0;exitDy=0;entryX=0.5;entryY=1;entryDx=0;entryDy=0;exitPerimeter=0;" parent="1" source="EGHb8W3hOEWeccC0JwiV-64" target="EGHb8W3hOEWeccC0JwiV-71" edge="1">
          <mxGeometry width="50" height="50" relative="1" as="geometry">
            <mxPoint x="445" y="1430" as="sourcePoint" />
            <mxPoint x="445" y="1410" as="targetPoint" />
            <Array as="points" />
            <mxPoint as="offset" />
          </mxGeometry>
        </mxCell>
        <mxCell id="EGHb8W3hOEWeccC0JwiV-71" value="" style="ellipse;whiteSpace=wrap;html=1;aspect=fixed;rotation=15;" parent="1" vertex="1">
          <mxGeometry x="255" y="1440" width="20" height="20" as="geometry" />
        </mxCell>
        <mxCell id="EGHb8W3hOEWeccC0JwiV-79" value="" style="endArrow=none;html=1;rounded=0;exitX=0;exitY=0;exitDx=0;exitDy=0;entryX=0.5;entryY=1;entryDx=0;entryDy=0;" parent="1" source="EGHb8W3hOEWeccC0JwiV-64" edge="1" target="Z9AFtrY4_CmLBTgdTpo8-18">
          <mxGeometry width="50" height="50" relative="1" as="geometry">
            <mxPoint x="225" y="1320" as="sourcePoint" />
            <mxPoint x="220" y="1300" as="targetPoint" />
            <Array as="points" />
            <mxPoint as="offset" />
          </mxGeometry>
        </mxCell>
        <mxCell id="EGHb8W3hOEWeccC0JwiV-85" value="" style="endArrow=none;html=1;rounded=0;exitX=0.008;exitY=0.133;exitDx=0;exitDy=0;entryX=0.5;entryY=1;entryDx=0;entryDy=0;exitPerimeter=0;" parent="1" source="EGHb8W3hOEWeccC0JwiV-64" target="EGHb8W3hOEWeccC0JwiV-86" edge="1">
          <mxGeometry width="50" height="50" relative="1" as="geometry">
            <mxPoint x="140" y="1450" as="sourcePoint" />
            <mxPoint x="140" y="1430" as="targetPoint" />
            <Array as="points" />
            <mxPoint as="offset" />
          </mxGeometry>
        </mxCell>
        <mxCell id="EGHb8W3hOEWeccC0JwiV-86" value="" style="ellipse;whiteSpace=wrap;html=1;aspect=fixed;rotation=-75;fillColor=#212121;" parent="1" vertex="1">
          <mxGeometry x="165" y="1310" width="20" height="20" as="geometry" />
        </mxCell>
        <mxCell id="EGHb8W3hOEWeccC0JwiV-88" value="" style="endArrow=none;html=1;rounded=0;exitX=0;exitY=0.25;exitDx=0;exitDy=0;entryX=1;entryY=1;entryDx=0;entryDy=0;" parent="1" source="EGHb8W3hOEWeccC0JwiV-64" target="EGHb8W3hOEWeccC0JwiV-89" edge="1">
          <mxGeometry width="50" height="50" relative="1" as="geometry">
            <mxPoint x="245" y="1500" as="sourcePoint" />
            <mxPoint x="245" y="1480" as="targetPoint" />
            <Array as="points" />
            <mxPoint as="offset" />
          </mxGeometry>
        </mxCell>
        <mxCell id="EGHb8W3hOEWeccC0JwiV-89" value="" style="ellipse;whiteSpace=wrap;html=1;aspect=fixed;rotation=-65;" parent="1" vertex="1">
          <mxGeometry x="165" y="1350" width="20" height="20" as="geometry" />
        </mxCell>
        <mxCell id="EGHb8W3hOEWeccC0JwiV-91" value="" style="endArrow=none;html=1;rounded=0;exitX=0;exitY=0.5;exitDx=0;exitDy=0;entryX=1;entryY=0.5;entryDx=0;entryDy=0;" parent="1" source="EGHb8W3hOEWeccC0JwiV-64" target="EGHb8W3hOEWeccC0JwiV-92" edge="1">
          <mxGeometry width="50" height="50" relative="1" as="geometry">
            <mxPoint x="305" y="1510" as="sourcePoint" />
            <mxPoint x="195" y="1390" as="targetPoint" />
            <Array as="points" />
            <mxPoint as="offset" />
          </mxGeometry>
        </mxCell>
        <mxCell id="EGHb8W3hOEWeccC0JwiV-92" value="" style="ellipse;whiteSpace=wrap;html=1;aspect=fixed;rotation=-40;" parent="1" vertex="1">
          <mxGeometry x="165" y="1390" width="20" height="20" as="geometry" />
        </mxCell>
        <mxCell id="EGHb8W3hOEWeccC0JwiV-94" value="" style="endArrow=none;html=1;rounded=0;exitX=0;exitY=1;exitDx=0;exitDy=0;entryX=1;entryY=0;entryDx=0;entryDy=0;" parent="1" source="EGHb8W3hOEWeccC0JwiV-64" target="EGHb8W3hOEWeccC0JwiV-95" edge="1">
          <mxGeometry width="50" height="50" relative="1" as="geometry">
            <mxPoint x="405" y="1530" as="sourcePoint" />
            <mxPoint x="405" y="1510" as="targetPoint" />
            <Array as="points" />
            <mxPoint as="offset" />
          </mxGeometry>
        </mxCell>
        <mxCell id="EGHb8W3hOEWeccC0JwiV-95" value="" style="ellipse;whiteSpace=wrap;html=1;aspect=fixed;rotation=15;" parent="1" vertex="1">
          <mxGeometry x="185" y="1430" width="20" height="20" as="geometry" />
        </mxCell>
        <mxCell id="EGHb8W3hOEWeccC0JwiV-102" value="Codigo de inmueble" style="text;html=1;align=center;verticalAlign=middle;resizable=0;points=[];autosize=1;strokeColor=none;fillColor=none;" parent="1" vertex="1">
          <mxGeometry x="30" y="1305" width="130" height="30" as="geometry" />
        </mxCell>
        <mxCell id="EGHb8W3hOEWeccC0JwiV-103" value="Ambientes" style="text;html=1;align=center;verticalAlign=middle;resizable=0;points=[];autosize=1;strokeColor=none;fillColor=none;" parent="1" vertex="1">
          <mxGeometry x="55" y="1345" width="80" height="30" as="geometry" />
        </mxCell>
        <mxCell id="EGHb8W3hOEWeccC0JwiV-104" value="Balcon" style="text;html=1;align=center;verticalAlign=middle;resizable=0;points=[];autosize=1;strokeColor=none;fillColor=none;" parent="1" vertex="1">
          <mxGeometry x="75" y="1388" width="60" height="30" as="geometry" />
        </mxCell>
        <mxCell id="EGHb8W3hOEWeccC0JwiV-105" value="Lavadero" style="text;html=1;align=center;verticalAlign=middle;resizable=0;points=[];autosize=1;strokeColor=none;fillColor=none;" parent="1" vertex="1">
          <mxGeometry x="90" y="1425" width="70" height="30" as="geometry" />
        </mxCell>
        <mxCell id="EGHb8W3hOEWeccC0JwiV-106" value="Baños" style="text;html=1;align=center;verticalAlign=middle;resizable=0;points=[];autosize=1;strokeColor=none;fillColor=none;" parent="1" vertex="1">
          <mxGeometry x="235" y="1458" width="60" height="30" as="geometry" />
        </mxCell>
        <mxCell id="EGHb8W3hOEWeccC0JwiV-109" value="Alquieres" style="rounded=0;whiteSpace=wrap;html=1;" parent="1" vertex="1">
          <mxGeometry x="85" y="970" width="120" height="60" as="geometry" />
        </mxCell>
        <mxCell id="EGHb8W3hOEWeccC0JwiV-110" value="Ventas" style="whiteSpace=wrap;html=1;" parent="1" vertex="1">
          <mxGeometry x="430" y="970" width="120" height="60" as="geometry" />
        </mxCell>
        <mxCell id="EGHb8W3hOEWeccC0JwiV-111" value="es" style="rhombus;whiteSpace=wrap;html=1;" parent="1" vertex="1">
          <mxGeometry x="220" y="1110" width="50" height="50" as="geometry" />
        </mxCell>
        <mxCell id="EGHb8W3hOEWeccC0JwiV-113" value="" style="endArrow=none;html=1;rounded=0;entryX=0.5;entryY=1;entryDx=0;entryDy=0;exitX=0.5;exitY=0;exitDx=0;exitDy=0;edgeStyle=orthogonalEdgeStyle;curved=1;" parent="1" source="EGHb8W3hOEWeccC0JwiV-111" target="EGHb8W3hOEWeccC0JwiV-109" edge="1">
          <mxGeometry width="50" height="50" relative="1" as="geometry">
            <mxPoint x="20" y="1140" as="sourcePoint" />
            <mxPoint x="70" y="1090" as="targetPoint" />
          </mxGeometry>
        </mxCell>
        <mxCell id="EGHb8W3hOEWeccC0JwiV-115" value="" style="endArrow=none;html=1;rounded=0;entryX=0.5;entryY=1;entryDx=0;entryDy=0;exitX=0.5;exitY=0;exitDx=0;exitDy=0;edgeStyle=orthogonalEdgeStyle;curved=1;" parent="1" source="EGHb8W3hOEWeccC0JwiV-64" target="EGHb8W3hOEWeccC0JwiV-111" edge="1">
          <mxGeometry width="50" height="50" relative="1" as="geometry">
            <mxPoint x="320" y="1299.5" as="sourcePoint" />
            <mxPoint x="250" y="1210.5" as="targetPoint" />
            <Array as="points">
              <mxPoint x="305" y="1240" />
              <mxPoint x="245" y="1240" />
            </Array>
          </mxGeometry>
        </mxCell>
        <mxCell id="EGHb8W3hOEWeccC0JwiV-117" value="es 2" style="rhombus;whiteSpace=wrap;html=1;" parent="1" vertex="1">
          <mxGeometry x="430" y="1123.5" width="50" height="50" as="geometry" />
        </mxCell>
        <mxCell id="EGHb8W3hOEWeccC0JwiV-118" value="" style="endArrow=none;html=1;rounded=0;entryX=0.5;entryY=1;entryDx=0;entryDy=0;exitX=0.5;exitY=0;exitDx=0;exitDy=0;edgeStyle=orthogonalEdgeStyle;curved=1;" parent="1" source="EGHb8W3hOEWeccC0JwiV-117" target="EGHb8W3hOEWeccC0JwiV-110" edge="1">
          <mxGeometry width="50" height="50" relative="1" as="geometry">
            <mxPoint x="175" y="1144.5" as="sourcePoint" />
            <mxPoint x="300" y="1034.5" as="targetPoint" />
          </mxGeometry>
        </mxCell>
        <mxCell id="EGHb8W3hOEWeccC0JwiV-119" value="" style="endArrow=none;html=1;rounded=0;entryX=0.5;entryY=1;entryDx=0;entryDy=0;exitX=0.75;exitY=0;exitDx=0;exitDy=0;edgeStyle=orthogonalEdgeStyle;curved=1;" parent="1" source="EGHb8W3hOEWeccC0JwiV-64" target="EGHb8W3hOEWeccC0JwiV-117" edge="1">
          <mxGeometry width="50" height="50" relative="1" as="geometry">
            <mxPoint x="460" y="1334.5" as="sourcePoint" />
            <mxPoint x="405" y="1215" as="targetPoint" />
          </mxGeometry>
        </mxCell>
        <mxCell id="EGHb8W3hOEWeccC0JwiV-120" value="0,N" style="text;html=1;align=center;verticalAlign=middle;resizable=0;points=[];autosize=1;strokeColor=none;fillColor=none;" parent="1" vertex="1">
          <mxGeometry x="330" y="1305" width="40" height="30" as="geometry" />
        </mxCell>
        <mxCell id="EGHb8W3hOEWeccC0JwiV-121" value="1,1" style="text;html=1;align=center;verticalAlign=middle;resizable=0;points=[];autosize=1;strokeColor=none;fillColor=none;" parent="1" vertex="1">
          <mxGeometry x="490" y="1038" width="40" height="30" as="geometry" />
        </mxCell>
        <mxCell id="EGHb8W3hOEWeccC0JwiV-122" value="0,N" style="text;html=1;align=center;verticalAlign=middle;resizable=0;points=[];autosize=1;strokeColor=none;fillColor=none;" parent="1" vertex="1">
          <mxGeometry x="270" y="1300" width="40" height="30" as="geometry" />
        </mxCell>
        <mxCell id="EGHb8W3hOEWeccC0JwiV-123" value="1,1" style="text;html=1;align=center;verticalAlign=middle;resizable=0;points=[];autosize=1;strokeColor=none;fillColor=none;" parent="1" vertex="1">
          <mxGeometry x="160" y="1038" width="40" height="30" as="geometry" />
        </mxCell>
        <mxCell id="EGHb8W3hOEWeccC0JwiV-128" value="vende" style="rhombus;whiteSpace=wrap;html=1;" parent="1" vertex="1">
          <mxGeometry x="510" y="830" width="50" height="50" as="geometry" />
        </mxCell>
        <mxCell id="EGHb8W3hOEWeccC0JwiV-129" value="" style="endArrow=none;html=1;rounded=0;entryX=0.799;entryY=0.997;entryDx=0;entryDy=0;exitX=0.5;exitY=0;exitDx=0;exitDy=0;edgeStyle=orthogonalEdgeStyle;curved=1;entryPerimeter=0;" parent="1" source="EGHb8W3hOEWeccC0JwiV-128" target="EGHb8W3hOEWeccC0JwiV-4" edge="1">
          <mxGeometry width="50" height="50" relative="1" as="geometry">
            <mxPoint x="276.64" y="864.86" as="sourcePoint" />
            <mxPoint x="380.0000000000001" y="722.9999999999999" as="targetPoint" />
          </mxGeometry>
        </mxCell>
        <mxCell id="EGHb8W3hOEWeccC0JwiV-130" value="" style="endArrow=none;html=1;rounded=0;entryX=0.5;entryY=1;entryDx=0;entryDy=0;exitX=0.5;exitY=0;exitDx=0;exitDy=0;edgeStyle=orthogonalEdgeStyle;curved=1;" parent="1" source="EGHb8W3hOEWeccC0JwiV-110" target="EGHb8W3hOEWeccC0JwiV-128" edge="1">
          <mxGeometry width="50" height="50" relative="1" as="geometry">
            <mxPoint x="561.64" y="1054.86" as="sourcePoint" />
            <mxPoint x="506.64" y="935.36" as="targetPoint" />
          </mxGeometry>
        </mxCell>
        <mxCell id="EGHb8W3hOEWeccC0JwiV-131" value="comprar" style="rhombus;whiteSpace=wrap;html=1;" parent="1" vertex="1">
          <mxGeometry x="310" y="830" width="50" height="50" as="geometry" />
        </mxCell>
        <mxCell id="EGHb8W3hOEWeccC0JwiV-132" value="" style="endArrow=none;html=1;rounded=0;entryX=0.75;entryY=1;entryDx=0;entryDy=0;exitX=0.5;exitY=0;exitDx=0;exitDy=0;edgeStyle=orthogonalEdgeStyle;curved=1;" parent="1" source="EGHb8W3hOEWeccC0JwiV-131" target="EGHb8W3hOEWeccC0JwiV-3" edge="1">
          <mxGeometry width="50" height="50" relative="1" as="geometry">
            <mxPoint x="172.52" y="969.5" as="sourcePoint" />
            <mxPoint x="290" y="746.5" as="targetPoint" />
          </mxGeometry>
        </mxCell>
        <mxCell id="EGHb8W3hOEWeccC0JwiV-133" value="" style="endArrow=none;html=1;rounded=0;entryX=0.5;entryY=1;entryDx=0;entryDy=0;exitX=0.306;exitY=-0.017;exitDx=0;exitDy=0;edgeStyle=orthogonalEdgeStyle;curved=1;exitPerimeter=0;" parent="1" source="EGHb8W3hOEWeccC0JwiV-110" target="EGHb8W3hOEWeccC0JwiV-131" edge="1">
          <mxGeometry width="50" height="50" relative="1" as="geometry">
            <mxPoint x="457.52" y="1159.5" as="sourcePoint" />
            <mxPoint x="402.52" y="1040" as="targetPoint" />
          </mxGeometry>
        </mxCell>
        <mxCell id="EGHb8W3hOEWeccC0JwiV-135" value="alquila" style="rhombus;whiteSpace=wrap;html=1;" parent="1" vertex="1">
          <mxGeometry x="-30" y="840" width="50" height="50" as="geometry" />
        </mxCell>
        <mxCell id="EGHb8W3hOEWeccC0JwiV-136" value="" style="endArrow=none;html=1;rounded=0;entryX=0.2;entryY=1.017;entryDx=0;entryDy=0;edgeStyle=orthogonalEdgeStyle;curved=1;entryPerimeter=0;exitX=0.5;exitY=0;exitDx=0;exitDy=0;" parent="1" source="EGHb8W3hOEWeccC0JwiV-135" target="EGHb8W3hOEWeccC0JwiV-3" edge="1">
          <mxGeometry width="50" height="50" relative="1" as="geometry">
            <mxPoint x="80" y="800" as="sourcePoint" />
            <mxPoint x="35" y="740" as="targetPoint" />
            <Array as="points">
              <mxPoint x="-5" y="830" />
              <mxPoint x="5" y="830" />
              <mxPoint x="5" y="800" />
              <mxPoint x="15" y="800" />
              <mxPoint x="15" y="820" />
              <mxPoint x="40" y="820" />
              <mxPoint x="40" y="790" />
              <mxPoint x="100" y="790" />
              <mxPoint x="100" y="760" />
              <mxPoint x="60" y="760" />
              <mxPoint x="60" y="711" />
            </Array>
          </mxGeometry>
        </mxCell>
        <mxCell id="EGHb8W3hOEWeccC0JwiV-137" value="" style="endArrow=none;html=1;rounded=0;entryX=0.5;entryY=1;entryDx=0;entryDy=0;exitX=0.097;exitY=0.009;exitDx=0;exitDy=0;edgeStyle=orthogonalEdgeStyle;curved=1;exitPerimeter=0;" parent="1" source="EGHb8W3hOEWeccC0JwiV-109" target="EGHb8W3hOEWeccC0JwiV-135" edge="1">
          <mxGeometry width="50" height="50" relative="1" as="geometry">
            <mxPoint x="195" y="1040" as="sourcePoint" />
            <mxPoint x="140" y="920.5" as="targetPoint" />
            <Array as="points">
              <mxPoint x="100" y="971" />
              <mxPoint x="100" y="910" />
              <mxPoint x="50" y="910" />
              <mxPoint x="50" y="890" />
              <mxPoint x="30" y="890" />
              <mxPoint x="30" y="920" />
              <mxPoint x="-5" y="920" />
            </Array>
          </mxGeometry>
        </mxCell>
        <mxCell id="EGHb8W3hOEWeccC0JwiV-138" value="alquila" style="rhombus;whiteSpace=wrap;html=1;" parent="1" vertex="1">
          <mxGeometry x="135" y="830" width="50" height="50" as="geometry" />
        </mxCell>
        <mxCell id="EGHb8W3hOEWeccC0JwiV-139" value="" style="endArrow=none;html=1;rounded=0;exitX=0.5;exitY=0;exitDx=0;exitDy=0;edgeStyle=orthogonalEdgeStyle;curved=1;entryX=0.5;entryY=1;entryDx=0;entryDy=0;" parent="1" source="EGHb8W3hOEWeccC0JwiV-138" target="EGHb8W3hOEWeccC0JwiV-4" edge="1">
          <mxGeometry width="50" height="50" relative="1" as="geometry">
            <mxPoint x="16.639999999999986" y="836.84" as="sourcePoint" />
            <mxPoint x="46.039999999999964" y="680" as="targetPoint" />
            <Array as="points">
              <mxPoint x="165" y="790" />
              <mxPoint x="280" y="790" />
            </Array>
          </mxGeometry>
        </mxCell>
        <mxCell id="EGHb8W3hOEWeccC0JwiV-140" value="" style="endArrow=none;html=1;rounded=0;entryX=0.5;entryY=1;entryDx=0;entryDy=0;edgeStyle=orthogonalEdgeStyle;curved=1;" parent="1" target="EGHb8W3hOEWeccC0JwiV-138" edge="1">
          <mxGeometry width="50" height="50" relative="1" as="geometry">
            <mxPoint x="160" y="970" as="sourcePoint" />
            <mxPoint x="246.64" y="907.34" as="targetPoint" />
            <Array as="points">
              <mxPoint x="153" y="970" />
              <mxPoint x="170" y="970" />
              <mxPoint x="170" y="930" />
              <mxPoint x="200" y="930" />
              <mxPoint x="200" y="890" />
              <mxPoint x="165" y="890" />
            </Array>
          </mxGeometry>
        </mxCell>
        <mxCell id="EGHb8W3hOEWeccC0JwiV-143" value="0,N" style="text;html=1;align=center;verticalAlign=middle;resizable=0;points=[];autosize=1;strokeColor=none;fillColor=none;" parent="1" vertex="1">
          <mxGeometry x="240" y="718" width="40" height="30" as="geometry" />
        </mxCell>
        <mxCell id="EGHb8W3hOEWeccC0JwiV-144" value="0,N" style="text;html=1;align=center;verticalAlign=middle;resizable=0;points=[];autosize=1;strokeColor=none;fillColor=none;" parent="1" vertex="1">
          <mxGeometry x="320" y="718" width="40" height="30" as="geometry" />
        </mxCell>
        <mxCell id="EGHb8W3hOEWeccC0JwiV-145" value="0,N" style="text;html=1;align=center;verticalAlign=middle;resizable=0;points=[];autosize=1;strokeColor=none;fillColor=none;" parent="1" vertex="1">
          <mxGeometry x="55" y="718" width="40" height="30" as="geometry" />
        </mxCell>
        <mxCell id="EGHb8W3hOEWeccC0JwiV-147" value="0,N" style="text;html=1;align=center;verticalAlign=middle;resizable=0;points=[];autosize=1;strokeColor=none;fillColor=none;" parent="1" vertex="1">
          <mxGeometry x="115" y="765" width="40" height="30" as="geometry" />
        </mxCell>
        <mxCell id="EGHb8W3hOEWeccC0JwiV-148" value="1,1" style="text;html=1;align=center;verticalAlign=middle;resizable=0;points=[];autosize=1;strokeColor=none;fillColor=none;" parent="1" vertex="1">
          <mxGeometry x="70" y="938" width="40" height="30" as="geometry" />
        </mxCell>
        <mxCell id="EGHb8W3hOEWeccC0JwiV-149" value="1,1" style="text;html=1;align=center;verticalAlign=middle;resizable=0;points=[];autosize=1;strokeColor=none;fillColor=none;" parent="1" vertex="1">
          <mxGeometry x="165" y="940" width="40" height="30" as="geometry" />
        </mxCell>
        <mxCell id="EGHb8W3hOEWeccC0JwiV-151" value="1,1" style="text;html=1;align=center;verticalAlign=middle;resizable=0;points=[];autosize=1;strokeColor=none;fillColor=none;" parent="1" vertex="1">
          <mxGeometry x="430" y="938" width="40" height="30" as="geometry" />
        </mxCell>
        <mxCell id="EGHb8W3hOEWeccC0JwiV-152" value="1,1" style="text;html=1;align=center;verticalAlign=middle;resizable=0;points=[];autosize=1;strokeColor=none;fillColor=none;" parent="1" vertex="1">
          <mxGeometry x="485" y="946" width="40" height="30" as="geometry" />
        </mxCell>
        <mxCell id="EGHb8W3hOEWeccC0JwiV-153" value="Tipos" style="rounded=0;whiteSpace=wrap;html=1;" parent="1" vertex="1">
          <mxGeometry x="600" y="1328" width="120" height="60" as="geometry" />
        </mxCell>
        <mxCell id="EGHb8W3hOEWeccC0JwiV-154" value="Tiene" style="rhombus;whiteSpace=wrap;html=1;" parent="1" vertex="1">
          <mxGeometry x="480" y="1335" width="50" height="49" as="geometry" />
        </mxCell>
        <mxCell id="EGHb8W3hOEWeccC0JwiV-155" value="" style="endArrow=none;html=1;rounded=0;entryX=0;entryY=0.5;entryDx=0;entryDy=0;exitX=1;exitY=0.5;exitDx=0;exitDy=0;" parent="1" source="EGHb8W3hOEWeccC0JwiV-64" target="EGHb8W3hOEWeccC0JwiV-154" edge="1">
          <mxGeometry width="50" height="50" relative="1" as="geometry">
            <mxPoint x="460" y="1400" as="sourcePoint" />
            <mxPoint x="510" y="1350" as="targetPoint" />
          </mxGeometry>
        </mxCell>
        <mxCell id="EGHb8W3hOEWeccC0JwiV-156" value="" style="endArrow=none;html=1;rounded=0;entryX=0;entryY=0.5;entryDx=0;entryDy=0;exitX=1;exitY=0.5;exitDx=0;exitDy=0;" parent="1" source="EGHb8W3hOEWeccC0JwiV-154" target="EGHb8W3hOEWeccC0JwiV-153" edge="1">
          <mxGeometry width="50" height="50" relative="1" as="geometry">
            <mxPoint x="540" y="1440" as="sourcePoint" />
            <mxPoint x="590" y="1390" as="targetPoint" />
          </mxGeometry>
        </mxCell>
        <mxCell id="EGHb8W3hOEWeccC0JwiV-157" value="" style="endArrow=none;html=1;rounded=0;exitX=0.75;exitY=0;exitDx=0;exitDy=0;entryX=0.5;entryY=1;entryDx=0;entryDy=0;" parent="1" source="EGHb8W3hOEWeccC0JwiV-153" target="EGHb8W3hOEWeccC0JwiV-158" edge="1">
          <mxGeometry width="50" height="50" relative="1" as="geometry">
            <mxPoint x="660" y="1330" as="sourcePoint" />
            <mxPoint x="690" y="1300" as="targetPoint" />
          </mxGeometry>
        </mxCell>
        <mxCell id="EGHb8W3hOEWeccC0JwiV-158" value="" style="ellipse;whiteSpace=wrap;html=1;aspect=fixed;fillColor=#191919;" parent="1" vertex="1">
          <mxGeometry x="680" y="1285" width="20" height="20" as="geometry" />
        </mxCell>
        <mxCell id="EGHb8W3hOEWeccC0JwiV-160" value="Nombre" style="text;html=1;align=center;verticalAlign=middle;resizable=0;points=[];autosize=1;strokeColor=none;fillColor=none;" parent="1" vertex="1">
          <mxGeometry x="655" y="1255" width="70" height="30" as="geometry" />
        </mxCell>
        <mxCell id="EGHb8W3hOEWeccC0JwiV-161" value="1,N" style="text;html=1;align=center;verticalAlign=middle;resizable=0;points=[];autosize=1;strokeColor=none;fillColor=none;" parent="1" vertex="1">
          <mxGeometry x="550" y="1328" width="40" height="30" as="geometry" />
        </mxCell>
        <mxCell id="EGHb8W3hOEWeccC0JwiV-162" value="1,1" style="text;html=1;align=center;verticalAlign=middle;resizable=0;points=[];autosize=1;strokeColor=none;fillColor=none;" parent="1" vertex="1">
          <mxGeometry x="365" y="1335" width="40" height="30" as="geometry" />
        </mxCell>
        <mxCell id="EGHb8W3hOEWeccC0JwiV-166" value="Trabaja" style="rhombus;whiteSpace=wrap;html=1;" parent="1" vertex="1">
          <mxGeometry x="525" y="656" width="65" height="48" as="geometry" />
        </mxCell>
        <mxCell id="EGHb8W3hOEWeccC0JwiV-167" value="" style="endArrow=none;html=1;rounded=0;entryX=0;entryY=0.5;entryDx=0;entryDy=0;exitX=1;exitY=0.5;exitDx=0;exitDy=0;" parent="1" source="EGHb8W3hOEWeccC0JwiV-4" target="EGHb8W3hOEWeccC0JwiV-166" edge="1">
          <mxGeometry width="50" height="50" relative="1" as="geometry">
            <mxPoint x="470" y="710" as="sourcePoint" />
            <mxPoint x="520" y="660" as="targetPoint" />
          </mxGeometry>
        </mxCell>
        <mxCell id="EGHb8W3hOEWeccC0JwiV-168" value="" style="endArrow=none;html=1;rounded=0;entryX=0;entryY=0.5;entryDx=0;entryDy=0;exitX=1;exitY=0.5;exitDx=0;exitDy=0;" parent="1" source="EGHb8W3hOEWeccC0JwiV-166" target="EGHb8W3hOEWeccC0JwiV-31" edge="1">
          <mxGeometry width="50" height="50" relative="1" as="geometry">
            <mxPoint x="660" y="760" as="sourcePoint" />
            <mxPoint x="710" y="710" as="targetPoint" />
          </mxGeometry>
        </mxCell>
        <mxCell id="EGHb8W3hOEWeccC0JwiV-169" value="1,N" style="text;html=1;align=center;verticalAlign=middle;resizable=0;points=[];autosize=1;strokeColor=none;fillColor=none;" parent="1" vertex="1">
          <mxGeometry x="350" y="678" width="40" height="30" as="geometry" />
        </mxCell>
        <mxCell id="EGHb8W3hOEWeccC0JwiV-170" value="1,N" style="text;html=1;align=center;verticalAlign=middle;resizable=0;points=[];autosize=1;strokeColor=none;fillColor=none;" parent="1" vertex="1">
          <mxGeometry x="700" y="680" width="40" height="30" as="geometry" />
        </mxCell>
        <mxCell id="EGHb8W3hOEWeccC0JwiV-171" value="" style="endArrow=none;html=1;rounded=0;exitX=0.5;exitY=0;exitDx=0;exitDy=0;entryX=0.5;entryY=1;entryDx=0;entryDy=0;" parent="1" source="EGHb8W3hOEWeccC0JwiV-166" target="EGHb8W3hOEWeccC0JwiV-172" edge="1">
          <mxGeometry width="50" height="50" relative="1" as="geometry">
            <mxPoint x="500" y="650" as="sourcePoint" />
            <mxPoint x="560" y="630" as="targetPoint" />
          </mxGeometry>
        </mxCell>
        <mxCell id="EGHb8W3hOEWeccC0JwiV-172" value="" style="ellipse;whiteSpace=wrap;html=1;aspect=fixed;" parent="1" vertex="1">
          <mxGeometry x="549" y="622" width="17" height="17" as="geometry" />
        </mxCell>
        <mxCell id="EGHb8W3hOEWeccC0JwiV-173" value="" style="endArrow=none;html=1;rounded=0;entryX=0.5;entryY=1;entryDx=0;entryDy=0;exitX=0.5;exitY=0;exitDx=0;exitDy=0;" parent="1" source="EGHb8W3hOEWeccC0JwiV-174" target="EGHb8W3hOEWeccC0JwiV-166" edge="1">
          <mxGeometry width="50" height="50" relative="1" as="geometry">
            <mxPoint x="558" y="720" as="sourcePoint" />
            <mxPoint x="590" y="720" as="targetPoint" />
          </mxGeometry>
        </mxCell>
        <mxCell id="EGHb8W3hOEWeccC0JwiV-174" value="" style="ellipse;whiteSpace=wrap;html=1;aspect=fixed;" parent="1" vertex="1">
          <mxGeometry x="550" y="725.5" width="14.5" height="14.5" as="geometry" />
        </mxCell>
        <mxCell id="EGHb8W3hOEWeccC0JwiV-175" value="Fecha inicio" style="text;html=1;align=center;verticalAlign=middle;resizable=0;points=[];autosize=1;strokeColor=none;fillColor=none;" parent="1" vertex="1">
          <mxGeometry x="512.5" y="595" width="90" height="30" as="geometry" />
        </mxCell>
        <mxCell id="EGHb8W3hOEWeccC0JwiV-176" value="Fecha fin" style="text;html=1;align=center;verticalAlign=middle;resizable=0;points=[];autosize=1;strokeColor=none;fillColor=none;" parent="1" vertex="1">
          <mxGeometry x="520" y="735" width="70" height="30" as="geometry" />
        </mxCell>
        <mxCell id="EGHb8W3hOEWeccC0JwiV-209" value="" style="endArrow=none;html=1;rounded=0;exitX=1;exitY=0.5;exitDx=0;exitDy=0;edgeStyle=orthogonalEdgeStyle;curved=1;entryX=0.047;entryY=-0.089;entryDx=0;entryDy=0;entryPerimeter=0;" parent="1" source="EGHb8W3hOEWeccC0JwiV-210" target="EGHb8W3hOEWeccC0JwiV-145" edge="1">
          <mxGeometry width="50" height="50" relative="1" as="geometry">
            <mxPoint x="-70" y="865" as="sourcePoint" />
            <mxPoint x="30" y="740" as="targetPoint" />
            <Array as="points">
              <mxPoint y="998" />
              <mxPoint y="920" />
              <mxPoint x="-40" y="920" />
              <mxPoint x="-40" y="760" />
              <mxPoint x="31" y="760" />
              <mxPoint x="31" y="740" />
              <mxPoint x="57" y="740" />
            </Array>
          </mxGeometry>
        </mxCell>
        <mxCell id="EGHb8W3hOEWeccC0JwiV-210" value="" style="ellipse;whiteSpace=wrap;html=1;aspect=fixed;rotation=-80;fillColor=#0A0A0A;" parent="1" vertex="1">
          <mxGeometry x="-3.17" y="998.17" width="10" height="10" as="geometry" />
        </mxCell>
        <mxCell id="EGHb8W3hOEWeccC0JwiV-212" value="" style="endArrow=none;html=1;rounded=0;entryX=0;entryY=0.5;entryDx=0;entryDy=0;exitX=1;exitY=0.5;exitDx=0;exitDy=0;" parent="1" source="EGHb8W3hOEWeccC0JwiV-213" target="EGHb8W3hOEWeccC0JwiV-109" edge="1">
          <mxGeometry width="50" height="50" relative="1" as="geometry">
            <mxPoint x="60" y="1000" as="sourcePoint" />
            <mxPoint x="30" y="970" as="targetPoint" />
          </mxGeometry>
        </mxCell>
        <mxCell id="EGHb8W3hOEWeccC0JwiV-213" value="" style="ellipse;whiteSpace=wrap;html=1;aspect=fixed;rotation=15;" parent="1" vertex="1">
          <mxGeometry x="-28" y="976" width="18" height="18" as="geometry" />
        </mxCell>
        <mxCell id="EGHb8W3hOEWeccC0JwiV-216" value="" style="endArrow=none;html=1;rounded=0;entryX=0;entryY=0.75;entryDx=0;entryDy=0;exitX=1;exitY=0;exitDx=0;exitDy=0;" parent="1" source="EGHb8W3hOEWeccC0JwiV-217" target="EGHb8W3hOEWeccC0JwiV-109" edge="1">
          <mxGeometry width="50" height="50" relative="1" as="geometry">
            <mxPoint x="50" y="1040" as="sourcePoint" />
            <mxPoint x="70" y="1070" as="targetPoint" />
          </mxGeometry>
        </mxCell>
        <mxCell id="EGHb8W3hOEWeccC0JwiV-217" value="" style="ellipse;whiteSpace=wrap;html=1;aspect=fixed;rotation=35;" parent="1" vertex="1">
          <mxGeometry x="20" y="1043" width="20" height="20" as="geometry" />
        </mxCell>
        <mxCell id="EGHb8W3hOEWeccC0JwiV-218" value="" style="ellipse;whiteSpace=wrap;html=1;aspect=fixed;rotation=15;" parent="1" vertex="1">
          <mxGeometry x="45" y="1073" width="20" height="20" as="geometry" />
        </mxCell>
        <mxCell id="EGHb8W3hOEWeccC0JwiV-219" value="" style="endArrow=none;html=1;rounded=0;entryX=0;entryY=1;entryDx=0;entryDy=0;exitX=1;exitY=0;exitDx=0;exitDy=0;" parent="1" source="EGHb8W3hOEWeccC0JwiV-218" target="EGHb8W3hOEWeccC0JwiV-109" edge="1">
          <mxGeometry width="50" height="50" relative="1" as="geometry">
            <mxPoint x="-60" y="1090" as="sourcePoint" />
            <mxPoint x="-10" y="1040" as="targetPoint" />
          </mxGeometry>
        </mxCell>
        <mxCell id="EGHb8W3hOEWeccC0JwiV-224" value="Fecha de inicio" style="text;html=1;align=center;verticalAlign=middle;resizable=0;points=[];autosize=1;strokeColor=none;fillColor=none;" parent="1" vertex="1">
          <mxGeometry x="-125" y="970" width="100" height="30" as="geometry" />
        </mxCell>
        <mxCell id="EGHb8W3hOEWeccC0JwiV-225" value="Fin de fecha" style="text;html=1;align=center;verticalAlign=middle;resizable=0;points=[];autosize=1;strokeColor=none;fillColor=none;" parent="1" vertex="1">
          <mxGeometry x="-64" y="1043" width="90" height="30" as="geometry" />
        </mxCell>
        <mxCell id="EGHb8W3hOEWeccC0JwiV-226" value="Precio" style="text;html=1;align=center;verticalAlign=middle;resizable=0;points=[];autosize=1;strokeColor=none;fillColor=none;" parent="1" vertex="1">
          <mxGeometry x="-5" y="1068" width="60" height="30" as="geometry" />
        </mxCell>
        <mxCell id="EGHb8W3hOEWeccC0JwiV-227" value="" style="endArrow=none;html=1;rounded=0;entryX=1.023;entryY=0.089;entryDx=0;entryDy=0;exitX=1;exitY=0.5;exitDx=0;exitDy=0;entryPerimeter=0;" parent="1" source="EGHb8W3hOEWeccC0JwiV-228" target="EGHb8W3hOEWeccC0JwiV-110" edge="1">
          <mxGeometry width="50" height="50" relative="1" as="geometry">
            <mxPoint x="625" y="970" as="sourcePoint" />
            <mxPoint x="650" y="970" as="targetPoint" />
          </mxGeometry>
        </mxCell>
        <mxCell id="EGHb8W3hOEWeccC0JwiV-228" value="" style="ellipse;whiteSpace=wrap;html=1;aspect=fixed;rotation=-195;" parent="1" vertex="1">
          <mxGeometry x="590" y="952" width="18" height="18" as="geometry" />
        </mxCell>
        <mxCell id="EGHb8W3hOEWeccC0JwiV-229" value="" style="endArrow=none;html=1;rounded=0;entryX=0;entryY=0.75;entryDx=0;entryDy=0;exitX=0.5;exitY=1;exitDx=0;exitDy=0;" parent="1" source="EGHb8W3hOEWeccC0JwiV-253" target="EGHb8W3hOEWeccC0JwiV-110" edge="1">
          <mxGeometry width="50" height="50" relative="1" as="geometry">
            <mxPoint x="705" y="1018.5" as="sourcePoint" />
            <mxPoint x="740" y="993.5" as="targetPoint" />
          </mxGeometry>
        </mxCell>
        <mxCell id="EGHb8W3hOEWeccC0JwiV-230" value="" style="ellipse;whiteSpace=wrap;html=1;aspect=fixed;rotation=35;" parent="1" vertex="1">
          <mxGeometry x="360" y="1011.97" width="22.4" height="22.4" as="geometry" />
        </mxCell>
        <mxCell id="EGHb8W3hOEWeccC0JwiV-231" value="" style="ellipse;whiteSpace=wrap;html=1;aspect=fixed;rotation=-135;" parent="1" vertex="1">
          <mxGeometry x="582.5" y="993.17" width="20" height="20" as="geometry" />
        </mxCell>
        <mxCell id="EGHb8W3hOEWeccC0JwiV-232" value="" style="endArrow=none;html=1;rounded=0;entryX=1;entryY=0.5;entryDx=0;entryDy=0;exitX=1;exitY=0;exitDx=0;exitDy=0;" parent="1" source="EGHb8W3hOEWeccC0JwiV-231" target="EGHb8W3hOEWeccC0JwiV-110" edge="1">
          <mxGeometry width="50" height="50" relative="1" as="geometry">
            <mxPoint x="595" y="1068.5" as="sourcePoint" />
            <mxPoint x="740" y="1008.5" as="targetPoint" />
          </mxGeometry>
        </mxCell>
        <mxCell id="EGHb8W3hOEWeccC0JwiV-233" value="Fecha&amp;nbsp;" style="text;html=1;align=center;verticalAlign=middle;resizable=0;points=[];autosize=1;strokeColor=none;fillColor=none;" parent="1" vertex="1">
          <mxGeometry x="305" y="971.67" width="60" height="30" as="geometry" />
        </mxCell>
        <mxCell id="EGHb8W3hOEWeccC0JwiV-234" value="Hora" style="text;html=1;align=center;verticalAlign=middle;resizable=0;points=[];autosize=1;strokeColor=none;fillColor=none;" parent="1" vertex="1">
          <mxGeometry x="315" y="1008.1700000000001" width="50" height="30" as="geometry" />
        </mxCell>
        <mxCell id="EGHb8W3hOEWeccC0JwiV-235" value="Precio" style="text;html=1;align=center;verticalAlign=middle;resizable=0;points=[];autosize=1;strokeColor=none;fillColor=none;" parent="1" vertex="1">
          <mxGeometry x="595" y="985" width="60" height="30" as="geometry" />
        </mxCell>
        <mxCell id="EGHb8W3hOEWeccC0JwiV-238" value="" style="endArrow=none;html=1;rounded=0;exitX=0.5;exitY=0;exitDx=0;exitDy=0;entryX=0;entryY=1;entryDx=0;entryDy=0;" parent="1" source="EGHb8W3hOEWeccC0JwiV-249" target="EGHb8W3hOEWeccC0JwiV-239" edge="1">
          <mxGeometry width="50" height="50" relative="1" as="geometry">
            <mxPoint x="355" y="975.5" as="sourcePoint" />
            <mxPoint x="390" y="975.5" as="targetPoint" />
          </mxGeometry>
        </mxCell>
        <mxCell id="EGHb8W3hOEWeccC0JwiV-239" value="" style="ellipse;whiteSpace=wrap;html=1;aspect=fixed;rotation=-145;" parent="1" vertex="1">
          <mxGeometry x="350.5" y="975.17" width="23" height="23" as="geometry" />
        </mxCell>
        <mxCell id="EGHb8W3hOEWeccC0JwiV-240" value="Comicion" style="text;html=1;align=center;verticalAlign=middle;resizable=0;points=[];autosize=1;strokeColor=none;fillColor=none;" parent="1" vertex="1">
          <mxGeometry x="605.37" y="945.17" width="70" height="30" as="geometry" />
        </mxCell>
        <mxCell id="EGHb8W3hOEWeccC0JwiV-243" value="" style="endArrow=none;html=1;rounded=0;edgeStyle=orthogonalEdgeStyle;curved=1;exitX=1;exitY=0.5;exitDx=0;exitDy=0;" parent="1" source="EGHb8W3hOEWeccC0JwiV-248" edge="1">
          <mxGeometry width="50" height="50" relative="1" as="geometry">
            <mxPoint x="410" y="1030" as="sourcePoint" />
            <mxPoint x="290" y="780" as="targetPoint" />
            <Array as="points">
              <mxPoint x="411" y="1030" />
              <mxPoint x="400" y="1030" />
              <mxPoint x="400" y="960" />
              <mxPoint x="330" y="960" />
              <mxPoint x="330" y="890" />
              <mxPoint x="270" y="890" />
              <mxPoint x="270" y="850" />
              <mxPoint x="290" y="850" />
            </Array>
          </mxGeometry>
        </mxCell>
        <mxCell id="EGHb8W3hOEWeccC0JwiV-248" value="" style="ellipse;whiteSpace=wrap;html=1;aspect=fixed;rotation=-80;fillColor=#0A0A0A;" parent="1" vertex="1">
          <mxGeometry x="405" y="1038" width="10" height="10" as="geometry" />
        </mxCell>
        <mxCell id="EGHb8W3hOEWeccC0JwiV-251" value="" style="endArrow=none;html=1;rounded=0;exitX=0;exitY=0.25;exitDx=0;exitDy=0;entryX=0.5;entryY=1;entryDx=0;entryDy=0;" parent="1" source="EGHb8W3hOEWeccC0JwiV-110" target="EGHb8W3hOEWeccC0JwiV-249" edge="1">
          <mxGeometry width="50" height="50" relative="1" as="geometry">
            <mxPoint x="430" y="985" as="sourcePoint" />
            <mxPoint x="373" y="985" as="targetPoint" />
          </mxGeometry>
        </mxCell>
        <mxCell id="EGHb8W3hOEWeccC0JwiV-249" value="" style="ellipse;whiteSpace=wrap;html=1;aspect=fixed;rotation=-90;fillColor=#0A0A0A;" parent="1" vertex="1">
          <mxGeometry x="393" y="980" width="10" height="10" as="geometry" />
        </mxCell>
        <mxCell id="EGHb8W3hOEWeccC0JwiV-254" value="" style="endArrow=none;html=1;rounded=0;exitX=1;exitY=0;exitDx=0;exitDy=0;entryX=0.5;entryY=0;entryDx=0;entryDy=0;" parent="1" source="EGHb8W3hOEWeccC0JwiV-230" target="EGHb8W3hOEWeccC0JwiV-253" edge="1">
          <mxGeometry width="50" height="50" relative="1" as="geometry">
            <mxPoint x="387" y="1021" as="sourcePoint" />
            <mxPoint x="390" y="1023" as="targetPoint" />
          </mxGeometry>
        </mxCell>
        <mxCell id="EGHb8W3hOEWeccC0JwiV-253" value="" style="ellipse;whiteSpace=wrap;html=1;aspect=fixed;rotation=-90;fillColor=#0A0A0A;" parent="1" vertex="1">
          <mxGeometry x="395" y="1015" width="10" height="10" as="geometry" />
        </mxCell>
        <mxCell id="EGHb8W3hOEWeccC0JwiV-256" value="CONCEPTUAL:" style="text;html=1;align=center;verticalAlign=middle;resizable=0;points=[];autosize=1;strokeColor=none;fillColor=none;" parent="1" vertex="1">
          <mxGeometry x="355" y="428" width="110" height="30" as="geometry" />
        </mxCell>
        <mxCell id="Z9AFtrY4_CmLBTgdTpo8-1" value="" style="ellipse;whiteSpace=wrap;html=1;aspect=fixed;rotation=-65;" vertex="1" parent="1">
          <mxGeometry x="230" y="287.5" width="20" height="20" as="geometry" />
        </mxCell>
        <mxCell id="Z9AFtrY4_CmLBTgdTpo8-4" value="Dirección" style="text;html=1;align=center;verticalAlign=middle;resizable=0;points=[];autosize=1;strokeColor=none;fillColor=none;" vertex="1" parent="1">
          <mxGeometry x="210" y="257.5" width="70" height="30" as="geometry" />
        </mxCell>
        <mxCell id="Z9AFtrY4_CmLBTgdTpo8-5" value="EsUn" style="rhombus;whiteSpace=wrap;html=1;" vertex="1" parent="1">
          <mxGeometry x="90" y="500" width="50" height="42" as="geometry" />
        </mxCell>
        <mxCell id="Z9AFtrY4_CmLBTgdTpo8-6" value="EsUn1" style="rhombus;whiteSpace=wrap;html=1;" vertex="1" parent="1">
          <mxGeometry x="240" y="500" width="50" height="42" as="geometry" />
        </mxCell>
        <mxCell id="Z9AFtrY4_CmLBTgdTpo8-8" value="" style="endArrow=none;html=1;rounded=0;entryX=0.25;entryY=1;entryDx=0;entryDy=0;exitX=0.5;exitY=0;exitDx=0;exitDy=0;" edge="1" parent="1" source="Z9AFtrY4_CmLBTgdTpo8-5" target="EGHb8W3hOEWeccC0JwiV-2">
          <mxGeometry width="50" height="50" relative="1" as="geometry">
            <mxPoint x="40" y="520" as="sourcePoint" />
            <mxPoint x="90" y="470" as="targetPoint" />
          </mxGeometry>
        </mxCell>
        <mxCell id="Z9AFtrY4_CmLBTgdTpo8-9" value="" style="endArrow=none;html=1;rounded=0;entryX=0.75;entryY=1;entryDx=0;entryDy=0;exitX=0.5;exitY=0;exitDx=0;exitDy=0;" edge="1" parent="1" source="Z9AFtrY4_CmLBTgdTpo8-6" target="EGHb8W3hOEWeccC0JwiV-2">
          <mxGeometry width="50" height="50" relative="1" as="geometry">
            <mxPoint x="230" y="490" as="sourcePoint" />
            <mxPoint x="220" y="410" as="targetPoint" />
          </mxGeometry>
        </mxCell>
        <mxCell id="Z9AFtrY4_CmLBTgdTpo8-10" value="0,1" style="text;html=1;align=center;verticalAlign=middle;resizable=0;points=[];autosize=1;strokeColor=none;fillColor=none;" vertex="1" parent="1">
          <mxGeometry x="240" y="408" width="40" height="30" as="geometry" />
        </mxCell>
        <mxCell id="Z9AFtrY4_CmLBTgdTpo8-11" value="1,1" style="text;html=1;align=center;verticalAlign=middle;resizable=0;points=[];autosize=1;strokeColor=none;fillColor=none;" vertex="1" parent="1">
          <mxGeometry x="290" y="618" width="40" height="30" as="geometry" />
        </mxCell>
        <mxCell id="Z9AFtrY4_CmLBTgdTpo8-12" value="1,1" style="text;html=1;align=center;verticalAlign=middle;resizable=0;points=[];autosize=1;strokeColor=none;fillColor=none;" vertex="1" parent="1">
          <mxGeometry x="90" y="608" width="40" height="30" as="geometry" />
        </mxCell>
        <mxCell id="Z9AFtrY4_CmLBTgdTpo8-13" value="0,1" style="text;html=1;align=center;verticalAlign=middle;resizable=0;points=[];autosize=1;strokeColor=none;fillColor=none;" vertex="1" parent="1">
          <mxGeometry x="110" y="418" width="40" height="30" as="geometry" />
        </mxCell>
        <mxCell id="Z9AFtrY4_CmLBTgdTpo8-14" value="" style="endArrow=none;html=1;rounded=0;edgeStyle=orthogonalEdgeStyle;curved=1;entryX=0.5;entryY=0;entryDx=0;entryDy=0;exitX=0.91;exitY=-0.003;exitDx=0;exitDy=0;exitPerimeter=0;" edge="1" parent="1" source="EGHb8W3hOEWeccC0JwiV-3" target="Z9AFtrY4_CmLBTgdTpo8-5">
          <mxGeometry width="50" height="50" relative="1" as="geometry">
            <mxPoint x="170" y="630" as="sourcePoint" />
            <mxPoint x="180" y="450" as="targetPoint" />
            <Array as="points">
              <mxPoint x="139" y="540" />
              <mxPoint x="160" y="540" />
              <mxPoint x="160" y="490" />
              <mxPoint x="115" y="490" />
            </Array>
          </mxGeometry>
        </mxCell>
        <mxCell id="Z9AFtrY4_CmLBTgdTpo8-15" value="" style="endArrow=none;html=1;rounded=0;entryX=0;entryY=0.5;entryDx=0;entryDy=0;" edge="1" parent="1" target="Z9AFtrY4_CmLBTgdTpo8-16">
          <mxGeometry width="50" height="50" relative="1" as="geometry">
            <mxPoint x="140" y="650" as="sourcePoint" />
            <mxPoint x="170" y="620" as="targetPoint" />
          </mxGeometry>
        </mxCell>
        <mxCell id="Z9AFtrY4_CmLBTgdTpo8-16" value="" style="ellipse;whiteSpace=wrap;html=1;aspect=fixed;rotation=-50;fillColor=#050505;" vertex="1" parent="1">
          <mxGeometry x="159.39" y="614.68" width="17" height="17" as="geometry" />
        </mxCell>
        <mxCell id="Z9AFtrY4_CmLBTgdTpo8-18" value="" style="ellipse;whiteSpace=wrap;html=1;aspect=fixed;rotation=-65;" vertex="1" parent="1">
          <mxGeometry x="170" y="1275" width="20" height="20" as="geometry" />
        </mxCell>
        <mxCell id="Z9AFtrY4_CmLBTgdTpo8-19" value="Dirección" style="text;html=1;align=center;verticalAlign=middle;resizable=0;points=[];autosize=1;strokeColor=none;fillColor=none;" vertex="1" parent="1">
          <mxGeometry x="150" y="1245" width="70" height="30" as="geometry" />
        </mxCell>
        <mxCell id="Z9AFtrY4_CmLBTgdTpo8-21" value="Tiene" style="rhombus;whiteSpace=wrap;html=1;" vertex="1" parent="1">
          <mxGeometry x="730" y="510" width="50" height="41" as="geometry" />
        </mxCell>
        <mxCell id="Z9AFtrY4_CmLBTgdTpo8-22" value="Telefono" style="rounded=0;whiteSpace=wrap;html=1;" vertex="1" parent="1">
          <mxGeometry x="690" y="350.5" width="100" height="58" as="geometry" />
        </mxCell>
        <mxCell id="Z9AFtrY4_CmLBTgdTpo8-23" value="" style="endArrow=none;html=1;rounded=0;entryX=0.5;entryY=1;entryDx=0;entryDy=0;exitX=0.5;exitY=0;exitDx=0;exitDy=0;" edge="1" parent="1" source="Z9AFtrY4_CmLBTgdTpo8-21" target="Z9AFtrY4_CmLBTgdTpo8-22">
          <mxGeometry width="50" height="50" relative="1" as="geometry">
            <mxPoint x="620" y="530" as="sourcePoint" />
            <mxPoint x="670" y="480" as="targetPoint" />
          </mxGeometry>
        </mxCell>
        <mxCell id="Z9AFtrY4_CmLBTgdTpo8-24" value="0,N" style="text;html=1;align=center;verticalAlign=middle;resizable=0;points=[];autosize=1;strokeColor=none;fillColor=none;" vertex="1" parent="1">
          <mxGeometry x="730" y="588" width="40" height="30" as="geometry" />
        </mxCell>
        <mxCell id="Z9AFtrY4_CmLBTgdTpo8-25" value="0,N" style="text;html=1;align=center;verticalAlign=middle;resizable=0;points=[];autosize=1;strokeColor=none;fillColor=none;" vertex="1" parent="1">
          <mxGeometry x="690" y="418" width="40" height="30" as="geometry" />
        </mxCell>
        <mxCell id="Z9AFtrY4_CmLBTgdTpo8-26" value="" style="ellipse;whiteSpace=wrap;html=1;aspect=fixed;rotation=-65;" vertex="1" parent="1">
          <mxGeometry x="777" y="302.5" width="20" height="20" as="geometry" />
        </mxCell>
        <mxCell id="Z9AFtrY4_CmLBTgdTpo8-27" value="Telefono" style="text;html=1;align=center;verticalAlign=middle;resizable=0;points=[];autosize=1;strokeColor=none;fillColor=none;" vertex="1" parent="1">
          <mxGeometry x="757" y="272.5" width="70" height="30" as="geometry" />
        </mxCell>
        <mxCell id="Z9AFtrY4_CmLBTgdTpo8-28" value="" style="endArrow=none;html=1;rounded=0;entryX=0;entryY=0.5;entryDx=0;entryDy=0;" edge="1" parent="1" source="Z9AFtrY4_CmLBTgdTpo8-22" target="Z9AFtrY4_CmLBTgdTpo8-26">
          <mxGeometry width="50" height="50" relative="1" as="geometry">
            <mxPoint x="710" y="320" as="sourcePoint" />
            <mxPoint x="760" y="270" as="targetPoint" />
          </mxGeometry>
        </mxCell>
        <mxCell id="Z9AFtrY4_CmLBTgdTpo8-29" value="Posee" style="rhombus;whiteSpace=wrap;html=1;" vertex="1" parent="1">
          <mxGeometry x="-250" y="923" width="50" height="45" as="geometry" />
        </mxCell>
        <mxCell id="Z9AFtrY4_CmLBTgdTpo8-30" value="" style="endArrow=none;html=1;rounded=0;entryX=0.5;entryY=1;entryDx=0;entryDy=0;edgeStyle=orthogonalEdgeStyle;exitX=0.117;exitY=0.017;exitDx=0;exitDy=0;exitPerimeter=0;" edge="1" parent="1" source="EGHb8W3hOEWeccC0JwiV-64" target="Z9AFtrY4_CmLBTgdTpo8-29">
          <mxGeometry width="50" height="50" relative="1" as="geometry">
            <mxPoint x="250" y="1290" as="sourcePoint" />
            <mxPoint x="-160" y="1160" as="targetPoint" />
            <Array as="points">
              <mxPoint x="256" y="1331" />
              <mxPoint x="256" y="1240" />
              <mxPoint x="-225" y="1240" />
            </Array>
          </mxGeometry>
        </mxCell>
        <mxCell id="Z9AFtrY4_CmLBTgdTpo8-31" value="0,1" style="text;html=1;align=center;verticalAlign=middle;resizable=0;points=[];autosize=1;strokeColor=none;fillColor=none;" vertex="1" parent="1">
          <mxGeometry x="120" y="1198" width="40" height="30" as="geometry" />
        </mxCell>
        <mxCell id="Z9AFtrY4_CmLBTgdTpo8-32" value="0,N" style="text;html=1;align=center;verticalAlign=middle;resizable=0;points=[];autosize=1;strokeColor=none;fillColor=none;" vertex="1" parent="1">
          <mxGeometry x="-130" y="748" width="40" height="30" as="geometry" />
        </mxCell>
        <mxCell id="Z9AFtrY4_CmLBTgdTpo8-33" value="Tiene" style="rhombus;whiteSpace=wrap;html=1;" vertex="1" parent="1">
          <mxGeometry x="-215" y="625" width="45" height="48" as="geometry" />
        </mxCell>
        <mxCell id="Z9AFtrY4_CmLBTgdTpo8-34" value="" style="endArrow=none;html=1;rounded=0;entryX=0;entryY=0.5;entryDx=0;entryDy=0;exitX=1;exitY=0.5;exitDx=0;exitDy=0;" edge="1" parent="1" source="Z9AFtrY4_CmLBTgdTpo8-35" target="Z9AFtrY4_CmLBTgdTpo8-33">
          <mxGeometry width="50" height="50" relative="1" as="geometry">
            <mxPoint x="-300" y="640" as="sourcePoint" />
            <mxPoint x="-320" y="630" as="targetPoint" />
          </mxGeometry>
        </mxCell>
        <mxCell id="Z9AFtrY4_CmLBTgdTpo8-35" value="Nacionalidad" style="rounded=0;whiteSpace=wrap;html=1;" vertex="1" parent="1">
          <mxGeometry x="-430" y="608" width="120" height="70" as="geometry" />
        </mxCell>
        <mxCell id="Z9AFtrY4_CmLBTgdTpo8-36" value="" style="endArrow=none;html=1;rounded=0;exitX=0.25;exitY=0;exitDx=0;exitDy=0;entryX=0;entryY=1;entryDx=0;entryDy=0;" edge="1" parent="1" source="Z9AFtrY4_CmLBTgdTpo8-35" target="Z9AFtrY4_CmLBTgdTpo8-37">
          <mxGeometry width="50" height="50" relative="1" as="geometry">
            <mxPoint x="-390" y="600" as="sourcePoint" />
            <mxPoint x="-400" y="560" as="targetPoint" />
          </mxGeometry>
        </mxCell>
        <mxCell id="Z9AFtrY4_CmLBTgdTpo8-37" value="" style="ellipse;whiteSpace=wrap;html=1;aspect=fixed;rotation=-55;" vertex="1" parent="1">
          <mxGeometry x="-413" y="552" width="20" height="20" as="geometry" />
        </mxCell>
        <mxCell id="Z9AFtrY4_CmLBTgdTpo8-39" value="Nacionalidad" style="text;html=1;align=center;verticalAlign=middle;resizable=0;points=[];autosize=1;strokeColor=none;fillColor=none;" vertex="1" parent="1">
          <mxGeometry x="-455" y="518" width="90" height="30" as="geometry" />
        </mxCell>
        <mxCell id="Z9AFtrY4_CmLBTgdTpo8-40" value="0,N" style="text;html=1;align=center;verticalAlign=middle;resizable=0;points=[];autosize=1;strokeColor=none;fillColor=none;" vertex="1" parent="1">
          <mxGeometry x="-300" y="608" width="40" height="30" as="geometry" />
        </mxCell>
        <mxCell id="Z9AFtrY4_CmLBTgdTpo8-41" value="1,N" style="text;html=1;align=center;verticalAlign=middle;resizable=0;points=[];autosize=1;strokeColor=none;fillColor=none;" vertex="1" parent="1">
          <mxGeometry x="-30" y="638" width="40" height="30" as="geometry" />
        </mxCell>
      </root>
    </mxGraphModel>
  </diagram>
</mxfile>
